<?xml version="1.0" encoding="UTF-8"?>
<svg version="1.1" xmlns="http://www.w3.org/2000/svg" width="512" height="512">
<path d="M0 0 C168.96 0 337.92 0 512 0 C512 168.96 512 337.92 512 512 C343.04 512 174.08 512 0 512 C0 343.04 0 174.08 0 0 Z " fill="#FF0000" transform="translate(0,0)"/>
<path d="M0 0 C66.99 0 133.98 0 203 0 C203 13.2 203 26.4 203 40 C202 41 202 41 199.44064236 41.12304783 C198.29116651 41.12212604 197.14169065 41.12120424 195.9573822 41.12025452 C194.64339951 41.12162918 193.32941681 41.12300385 191.97561646 41.12442017 C190.50579812 41.12088054 189.03598 41.11724573 187.56616211 41.11352539 C186.02908836 41.11324353 184.49201447 41.11340123 182.9549408 41.1139679 C178.7691714 41.11425591 174.58343041 41.10835852 170.39766765 41.10139394 C166.02809844 41.09516109 161.65852865 41.09455666 157.28895569 41.09336853 C149.00872953 41.09025501 140.7285165 41.08204135 132.44829613 41.07201904 C123.02402841 41.06085854 113.59976008 41.05534761 104.1754874 41.05032361 C84.7836493 41.03985875 65.39182921 41.02151301 46 41 C46 60.47 46 79.94 46 100 C89.89 100 133.78 100 179 100 C179 112.21 179 124.42 179 137 C135.11 137 91.22 137 46 137 C46 166.37 46 195.74 46 226 C30.82 226 15.64 226 0 226 C0 151.42 0 76.84 0 0 Z " fill="#FFFBFB" transform="translate(64,143)"/>
<path d="M0 0 C0 61.05 0 122.1 0 185 C16.17 185 32.34 185 49 185 C49 198.2 49 211.4 49 225 C0.82 225 -47.36 225 -97 225 C-97 211.8 -97 198.6 -97 185 C-80.17 185 -63.34 185 -46 185 C-46 138.8 -46 92.6 -46 45 C-59.48975566 48.70591042 -59.48975566 48.70591042 -71.8125 54.25 C-79.02661272 58.12411384 -79.02661272 58.12411384 -83 59 C-90 49 -97 39 -104 29 C-102.6517938 25.77617611 -101.49287311 24.3543806 -98.421875 22.703125 C-97.68428955 22.30561035 -96.9467041 21.9080957 -96.18676758 21.49853516 C-95.38263428 21.08651855 -94.57850098 20.67450195 -93.75 20.25 C-92.91170654 19.81606934 -92.07341309 19.38213867 -91.2097168 18.93505859 C-73.13115185 9.84166862 -53.86599502 4.10296759 -33.875 1.25 C-33.02429932 1.12197998 -32.17359863 0.99395996 -31.29711914 0.86206055 C-20.76281428 -0.49971212 -10.8501967 0 0 0 Z " fill="#FFFDFD" transform="translate(399,144)"/>
<path d="M0 0 C0.33 0 0.66 0 1 0 C1 13.53 1 27.06 1 41 C-12.53 41 -26.06 41 -40 41 C-36.77794772 39.38897386 -33.66489916 38.09649079 -30.3125 36.8125 C-16.32964928 30.99481758 -7.86955879 20.70813891 -2 7 C-1.17794005 4.65968578 -0.55034658 2.42152494 0 0 Z " fill="#000000" transform="translate(511,471)"/>
<path d="M0 0 C1.61102614 3.22205228 2.90350921 6.33510084 4.1875 9.6875 C10.00518242 23.67035072 20.29186109 32.13044121 34 38 C36.34031422 38.82205995 38.57847506 39.44965342 41 40 C41 40.33 41 40.66 41 41 C27.47 41 13.94 41 0 41 C0 27.47 0 13.94 0 0 Z " fill="#000000" transform="translate(0,471)"/>
<path d="M0 0 C13.53 0 27.06 0 41 0 C41 13.53 41 27.06 41 41 C39.38897386 37.77794772 38.09649079 34.66489916 36.8125 31.3125 C30.99481758 17.32964928 20.70813891 8.86955879 7 3 C4.65968578 2.17794005 2.42152494 1.55034658 0 1 C0 0.67 0 0.34 0 0 Z " fill="#000000" transform="translate(471,0)"/>
<path d="M0 0 C13.53 0 27.06 0 41 0 C37.77794772 1.61102614 34.66489916 2.90350921 31.3125 4.1875 C17.32964928 10.00518242 8.86955879 20.29186109 3 34 C2.17794005 36.34031422 1.55034658 38.57847506 1 41 C0.67 41 0.34 41 0 41 C0 27.47 0 13.94 0 0 Z " fill="#000000" transform="translate(0,0)"/>
</svg>
